HIERARCHY
ROOT RootJoint
{
    OFFSET   0.000000   0.000000   0.000000
    CHANNELS 6 Xposition Yposition Zposition Xrotation Yrotation Zrotation
    JOINT lHip
    {
        OFFSET   0.100000  -0.051395   0.000000
        CHANNELS 3 Xrotation Yrotation Zrotation
        JOINT lKnee
        {
            OFFSET   0.000000  -0.410000   0.000000
            CHANNELS 3 Xrotation Yrotation Zrotation
            JOINT lAnkle
            {
                OFFSET   0.000000  -0.390000   0.000000
                CHANNELS 3 Xrotation Yrotation Zrotation
                JOINT lToeJoint
                {
                    OFFSET   0.000000  -0.050000   0.130000
                    CHANNELS 3 Xrotation Yrotation Zrotation
                    End Site
                    {
                        OFFSET   0.010000   0.002000   0.060000
                    }
                }
            }
        }
    }
    JOINT rHip
    {
        OFFSET  -0.100000  -0.051395   0.000000
        CHANNELS 3 Xrotation Yrotation Zrotation
        JOINT rKnee
        {
            OFFSET   0.000000  -0.410000   0.000000
            CHANNELS 3 Xrotation Yrotation Zrotation
            JOINT rAnkle
            {
                OFFSET   0.000000  -0.390000   0.000000
                CHANNELS 3 Xrotation Yrotation Zrotation
                JOINT rToeJoint
                {
                    OFFSET   0.000000  -0.050000   0.130000
                    CHANNELS 3 Xrotation Yrotation Zrotation
                    End Site
                    {
                        OFFSET  -0.010000   0.002000   0.060000
                    }
                }
            }
        }
    }
    JOINT pelvis_lowerback
    {
        OFFSET   0.000000   0.093605   0.000000
        CHANNELS 3 Xrotation Yrotation Zrotation
        JOINT lowerback_torso
        {
            OFFSET   0.000000   0.100000   0.000000
            CHANNELS 3 Xrotation Yrotation Zrotation
            JOINT torso_head
            {
                OFFSET   0.000000   0.282350   0.000000
                CHANNELS 3 Xrotation Yrotation Zrotation
                End Site
                {
                    OFFSET   0.000000   0.192650   0.000000
                }
            }
            JOINT lTorso_Clavicle
            {
                OFFSET   0.001000   0.157500   0.000000
                CHANNELS 3 Xrotation Yrotation Zrotation
                JOINT lShoulder
                {
                    OFFSET   0.117647   0.000000   0.000000
                    CHANNELS 3 Xrotation Yrotation Zrotation
                    JOINT lElbow
                    {
                        OFFSET   0.245000   0.000000   0.000000
                        CHANNELS 3 Xrotation Yrotation Zrotation
                        JOINT lWrist
                        {
                            OFFSET   0.240000   0.000000   0.000000
                            CHANNELS 3 Xrotation Yrotation Zrotation
                            End Site
                            {
                                OFFSET   0.116353  -0.002500   0.000000
                            }
                        }
                    }
                }
            }
            JOINT rTorso_Clavicle
            {
                OFFSET  -0.001000   0.157500   0.000000
                CHANNELS 3 Xrotation Yrotation Zrotation
                JOINT rShoulder
                {
                    OFFSET  -0.117647   0.000000   0.000000
                    CHANNELS 3 Xrotation Yrotation Zrotation
                    JOINT rElbow
                    {
                        OFFSET  -0.245000   0.000000   0.000000
                        CHANNELS 3 Xrotation Yrotation Zrotation
                        JOINT rWrist
                        {
                            OFFSET  -0.240000   0.000000   0.000000
                            CHANNELS 3 Xrotation Yrotation Zrotation
                            End Site
                            {
                                OFFSET  -0.116353  -0.002500   0.000000
                            }
                        }
                    }
                }
            }
        }
    }
}
MOTION
Frames: 12
Frame Time:   0.016667
  1.710605   0.870260  -2.694403  -2.063897  -4.163428   5.949270 -17.096034  -0.814910 -11.329957   9.042282   0.532986  -1.648749   8.407057  -0.082142   3.921385   0.000002   0.000005   0.000001   1.081700  -1.602621  -4.211694  45.158039   5.259169  -2.624371  21.122710   5.553522  14.960219   0.000007  -0.000007  -0.000003   1.241700   1.246751  -1.975147   5.058961   4.952824  -8.025703   3.319700  -0.719854   1.744156  -1.196178  -2.956861 -14.674478  35.670373 -33.195465 -47.198203   0.870164 -19.299952   2.740933   0.155391 -10.932974  19.631949   0.112393   5.391792  12.407678  29.232550  46.809677  45.876677  -0.748521  16.861239  -1.337022   4.348106   6.617594   0.458743
  1.711550   0.871484  -2.680522  -2.089440  -4.316531   6.504351 -16.076653  -0.897478 -11.904909   8.929278   0.708705  -1.833328   7.539400  -0.046022   4.180354   0.000002   0.000004   0.000001  -1.636702  -1.940294  -5.039085  49.028211   4.819741  -3.059023  23.238880   5.716697  16.910640   0.000008  -0.000009   0.000003   1.278365   1.191135  -2.128568   5.205933   4.717593  -8.642988   3.142108  -0.390922   1.926465  -1.194020  -3.203606 -14.659106  35.552008 -33.267039 -46.820998   0.917619 -20.095524   3.105687   0.174409 -10.946989  19.639855   0.116510   5.518125  12.218803  30.251854  47.268462  45.367975  -0.756606  17.370687  -1.415080   4.970291   6.909652   1.446470
  1.712121   0.872983  -2.666360  -2.176508  -4.259664   6.838919 -14.953943  -1.102210 -12.322162   8.721374   0.781662  -1.995735   6.756750  -0.082317   4.500870   0.000002  -0.000004  -0.000000  -4.249253  -2.330599  -5.625202  52.065544   4.743850  -3.210137  23.370854   5.705508  17.133025   0.000004  -0.000008  -0.000001   1.323036   1.091507  -2.234740   5.371334   4.306508  -9.069245   2.946916  -0.089362   2.116138  -1.187584  -3.538887 -14.609710  35.364197 -33.349305 -46.461734   0.969102 -20.931849   3.494519   0.109983 -11.012756  19.656756   0.118474   5.476061  12.184561  31.442546  47.668629  44.556272  -0.795331  18.153060  -1.714900   6.192439   7.200646   2.238303
  1.712623   0.874530  -2.652147  -2.275359  -4.165062   7.133506 -13.813707  -1.335186 -12.706708   8.496295   0.836472  -2.153950   5.989844  -0.135462   4.831887   0.000002  -0.000013  -0.000002  -6.846149  -2.711669  -6.182352  54.952024   4.732323  -3.312467  23.142583   5.655439  17.041676   0.000000  -0.000007  -0.000008   1.369008   0.983815  -2.332242   5.537469   3.862563  -9.459446   2.747720   0.206669   2.307992  -1.180060  -3.890259 -14.554068  35.164112 -33.434407 -46.105753   1.026753 -21.775290   3.890312   0.030390 -11.087956  19.675198   0.119995   5.403381  12.178443  32.679234  48.047144  43.673960  -0.835079  18.985271  -2.055934   7.521329   7.506351   2.988815
  1.712796   0.874765  -2.638501  -2.392863  -3.916713   7.488095 -12.885633  -1.478818 -13.150941   8.635962   0.778108  -2.307705   5.145464  -0.271358   5.162160   0.000002  -0.000009  -0.000000  -9.289339  -2.862265  -6.848439  56.790311   5.057536  -3.028014  20.813102   5.472410  16.676254   0.000004  -0.000006  -0.000005   1.419626   0.851189  -2.421406   5.714256   3.318133  -9.814271   2.632296   0.360725   2.360473  -1.171384  -4.192832 -14.490292  34.898443 -33.755604 -45.635804   1.067918 -22.366178   4.165265  -0.108943 -11.188835  19.690543   0.122586   5.185119  12.222015  33.511071  48.039114  43.072439  -0.893133  19.901866  -2.519132   8.860013   7.740839   3.299229
  1.712927   0.875023  -2.624780  -2.518374  -3.655822   7.813518 -11.939734  -1.625786 -13.562152   8.768422   0.702838  -2.458767   4.299878  -0.422470   5.485979   0.000002  -0.000005   0.000001 -11.679042  -2.966213  -7.471386  58.439067   5.338624  -2.740806  18.510998   5.270793  16.152353   0.000007  -0.000005  -0.000003   1.469120   0.718360  -2.501325   5.883780   2.772911 -10.130695   2.532077   0.498325   2.388640  -1.163337  -4.473294 -14.433492  34.639292 -34.120383 -45.134579   1.109397 -22.913496   4.417167  -0.239684 -11.283902  19.705427   0.125455   4.964869  12.262856  34.248345  47.966089  42.560005  -0.944194  20.801593  -2.977967  10.098695   7.969176   3.547774
  1.712833   0.875405  -2.610644  -2.680800  -3.322500   7.976975 -10.890618  -1.757235 -13.802304   8.861824   0.536354  -2.595593   3.444297  -0.635206   5.782801   0.000001  -0.000003   0.000001 -13.764846  -2.950810  -7.826503  59.048880   5.333799  -2.385303  16.357492   4.920631  14.785413   0.000008  -0.000005  -0.000002   1.513442   0.584789  -2.530951   6.030305   2.228639 -10.244551   2.516269   0.545977   2.281504  -1.160449  -4.632205 -14.415418  34.408861 -34.716997 -44.460126   1.136512 -23.222119   4.534199  -0.323067 -11.346831  19.718968   0.129078   4.733675  12.288714  34.466129  47.565177  42.537164  -0.991717  21.606627  -3.404822  10.790347   8.127036   3.482481
  1.712654   0.875847  -2.596393  -2.848651  -2.976433   8.083066  -9.813887  -1.884500 -13.975114   8.939911   0.345806  -2.727238   2.587349  -0.867054   6.069530   0.000000  -0.000001   0.000001 -15.741027  -2.863514  -8.102423  59.288446   5.276114  -2.000906  14.247490   4.594150  13.369798   0.000007  -0.000006  -0.000002   1.554809   0.453962  -2.543599   6.165111   1.696944 -10.289553   2.527352   0.571519   2.137658  -1.159845  -4.754410 -14.414426  34.205432 -35.383615 -43.719882   1.159842 -23.463419   4.611410  -0.381087 -11.394989  19.729902   0.132774   4.505375  12.313336  34.517190  47.066615  42.670112  -1.033006  22.359805  -3.810186  11.258171   8.270385   3.312302
  1.712228   0.876495  -2.581928  -3.006538  -2.631186   8.031896  -8.687164  -1.989930 -13.957189   8.974433   0.114813  -2.845743   1.728888  -1.127258   6.339853   0.000000  -0.000002   0.000001 -17.419570  -2.533538  -8.213871  58.529082   5.202197  -1.532900  12.264574   4.311483  12.577354   0.000001  -0.000010  -0.000003   1.585250   0.339009  -2.513528   6.260878   1.233934 -10.163415   2.601540   0.565215   1.927348  -1.166622  -4.796288 -14.468662  34.095276 -36.194869 -42.798075   1.175919 -23.573210   4.603906  -0.346972 -11.393982  19.728061   0.135842   4.303922  12.346115  34.178735  46.354714  43.160085  -1.065309  22.921341  -4.123371  11.039942   8.414216   2.883698
  1.711757   0.877179  -2.567425  -3.162068  -2.285855   7.952917  -7.551168  -2.090077 -13.902991   9.000636  -0.123563  -2.961785   0.871104  -1.395843   6.603890   0.000000  -0.000004   0.000000 -19.043165  -2.158426  -8.285923  57.588800   5.117878  -1.050999  10.303160   4.052807  11.891066  -0.000007  -0.000016  -0.000004   1.613777   0.226961  -2.475647   6.350723   0.783649 -10.005669   2.687151   0.552816   1.704971  -1.174769  -4.823552 -14.532946  34.016334 -37.033273 -41.835555   1.190610 -23.659098   4.580982  -0.296106 -11.384036  19.723894   0.138894   4.107353  12.380377  33.784035  45.601567  43.701037  -1.093933  23.448137  -4.420418  10.697920   8.560873   2.408884
  1.711228   0.877285  -2.553196  -3.237626  -2.004247   7.889516  -6.574496  -2.090421 -13.833510   9.194676  -0.365893  -3.052291  -0.051408  -1.668914   6.846632   0.000001  -0.000005  -0.000001 -20.408189  -1.596062  -8.236307  55.560218   4.924675  -0.679385   8.441020   3.761229  10.792401  -0.000004  -0.000012  -0.000004   1.625367   0.138561  -2.435555   6.379330   0.431624  -9.839473   2.807700   0.588074   1.492985  -1.186909  -4.857664 -14.628082  34.048205 -37.882941 -40.777153   1.204098 -23.755905   4.580716  -0.110778 -11.348368  19.704294   0.141146   3.927941  12.441712  33.201590  44.839410  44.343986  -1.111199  23.660510  -4.570402   9.728604   8.772327   1.713147
  1.710683   0.877474  -2.538984  -3.305629  -1.725730   7.801947  -5.590487  -2.103288 -13.741800   9.354219  -0.602474  -3.128507  -0.951828  -1.937146   7.073821   0.000002  -0.000005  -0.000001 -21.726661  -1.058240  -8.143829  53.383861   4.709291  -0.358136   6.668964   3.498327   9.730581  -0.000002  -0.000008  -0.000004   1.635530   0.051454  -2.390665   6.403571   0.085461  -9.654037   2.926952   0.634883   1.287273  -1.198187  -4.901597 -14.716230  34.093063 -38.716721 -39.731734   1.218084 -23.870231   4.596031   0.083782 -11.314488  19.688867   0.143504   3.749256  12.506597  32.642485  44.106357  44.946483  -1.126546  23.836007  -4.703061   8.746061   8.986386   1.019674
